#!OML:ASF H:\Terrain\Patient Classification 1\Terrain2\Thursday\justin.ASF
:FULLY-SPECIFIED
:DEGREES
2291
root 25.524 17.3078 -10.6168 -129.577 264.269 -228.947
lowerback 6.48652 3.34276 6.41555
upperback 0.483233 4.93229 2.57319
thorax -2.8174 2.35904 -1.33948
lowerneck -14.2562 3.69056 -5.56396
upperneck 15.194 5.59599 3.42146
head 6.71885 2.66028 2.55055
rclavicle 4.71617e-014 1.11319e-014
rhumerus -31.6174 -8.50304 -82.3821
rradius 29.3621
rwrist -10.0774
rhand -19.5399 10.9724
rfingers 7.12502
rthumb 6.78401 -18.8989
lclavicle 4.71617e-014 1.11319e-014
lhumerus -36.8844 14.9188 79.741
lradius 25.3608
lwrist -1.12044
lhand -17.2005 22.7187
lfingers 7.12502
lthumb 9.04188 52.5049
rfemur 18.8782 0.488819 29.3691
rtibia 16.1642
rfoot -11.0433 3.32083
rtoes 1.28841
lfemur -29.1513 -0.916679 -14.4159
ltibia 30.3786
lfoot -1.51307 -12.9003
ltoes 10.0359
2292
root 25.4024 17.3059 -10.5984 -130.038 264.358 -228.473
lowerback 6.36379 3.41122 6.35094
upperback 0.523405 5.00513 2.4886
thorax -2.6999 2.4011 -1.38625
lowerneck -13.9496 3.68674 -5.66727
upperneck 14.7142 5.56777 3.59376
head 6.50468 2.66633 2.59901
rclavicle -4.17945e-014 6.36111e-015
rhumerus -31.7572 -8.9148 -82.1111
rradius 29.5944
rwrist -10.0066
rhand -18.928 10.9674
rfingers 7.12502
rthumb 7.37462 -18.8841
lclavicle -4.17945e-014 6.36111e-015
lhumerus -36.6595 14.1063 80.0453
lradius 25.6183
lwrist -0.692535
lhand -16.5371 22.9023
lfingers 7.12502
lthumb 9.68202 52.6598
rfemur 18.2311 0.27561 29.0894
rtibia 17.9503
rfoot -10.1675 3.63334
rtoes 0.325901
lfemur -28.8633 0.630705 -15.1709
ltibia 30.4155
lfoot -2.86359 -14.1831
ltoes -1.80499
2293
root 25.2798 17.3526 -10.5816 -131.501 264.487 -227.006
lowerback 6.35682 3.48948 6.2412
upperback 0.529796 5.09988 2.31897
thorax -2.67689 2.45166 -1.50638
lowerneck -13.9547 3.63472 -5.68686
upperneck 14.6402 5.4506 3.90109
head 6.4768 2.63774 2.68868
rclavicle 7.22085e-014 2.06736e-014
rhumerus -31.9804 -9.27082 -81.9765
rradius 29.9166
rwrist -10.2088
rhand -18.6945 10.6322
rfingers 7.12502
rthumb 7.6 -19.2113
lclavicle 7.22085e-014 2.06736e-014
lhumerus -36.3913 13.7077 80.0991
lradius 25.7756
lwrist -0.857152
lhand -15.9103 22.925
lfingers 7.12502
lthumb 10.2867 52.6535
rfemur 17.2902 0.201012 28.7441
rtibia 20.201
rfoot -9.23798 3.98593
rtoes 0.82777
lfemur -28.2371 -0.808496 -14.7069
ltibia 30.2655
lfoot -1.26226 -13.0128
ltoes 12.9851
2294
root 25.152 17.415 -10.5686 -132.394 264.624 -226.126
lowerback 6.385 3.4841 5.9672
upperback 0.540399 5.07614 2.24026
thorax -2.6997 2.44374 -1.43723
lowerneck -14.2139 3.67657 -5.47529
upperneck 14.8795 5.46953 3.93714
head 6.60149 2.65841 2.68147
rclavicle -4.75095e-014 -8.74653e-015
rhumerus -32.1031 -9.30106 -81.9939
rradius 30.0762
rwrist -10.272
rhand -18.8792 10.5048
rfingers 7.12502
rthumb 7.42171 -19.3451
lclavicle -4.75095e-014 -8.74653e-015
lhumerus -36.2161 13.6416 80.0765
lradius 25.9938
lwrist -1.08817
lhand -15.6029 22.7899
lfingers 7.12502
lthumb 10.5832 52.5035
rfemur 16.1828 -0.0169479 28.358
rtibia 22.7473
rfoot -8.2717 4.55368
rtoes 1.13873
lfemur -27.4079 -3.4073 -13.7472
ltibia 29.9401
lfoot -0.199017 -10.6735
ltoes 29.9058
2295
root 25.0265 17.3895 -10.5619 -131.481 264.829 -227.161
lowerback 6.4054 3.46902 5.47626
upperback 0.574084 5.02509 2.34745
thorax -2.73111 2.42446 -1.05483
lowerneck -14.183 3.79827 -5.11301
upperneck 14.9691 5.6308 3.49131
head 6.64238 2.7144 2.49609
rclavicle 1.13804e-014 -9.54166e-015
rhumerus -32.2374 -9.07323 -81.9021
rradius 30.1957
rwrist -10.1311
rhand -18.8648 10.8346
rfingers 7.12502
rthumb 7.43564 -19.0148
lclavicle 1.13804e-014 -9.54166e-015
lhumerus -36.3411 13.4394 80.2688
lradius 26.3932
lwrist -0.993359
lhand -15.7666 22.7131
lfingers 7.12502
lthumb 10.4253 52.4346
rfemur 15.4819 -0.176286 28.0936
rtibia 24.8793
rfoot -6.95373 4.99704
rtoes 1.24092
lfemur -27.0536 0.267936 -15.2556
ltibia 29.8768
lfoot -1.78617 -13.6841
ltoes 10.1697
2296
root 24.9152 17.3523 -10.5302 -130.133 264.964 -228.543
lowerback 6.43539 3.45806 5.45888
upperback 0.576612 5.01173 2.38892
thorax -2.75122 2.41724 -1.00376
lowerneck -14.1423 3.86268 -4.9862
upperneck 14.9975 5.72331 3.28936
head 6.65092 2.74711 2.41885
rclavicle 1.42628e-014 -7.95139e-015
rhumerus -32.3089 -8.83723 -81.7763
rradius 30.3435
rwrist -10.195
rhand -19.0799 10.9496
rfingers 7.12502
rthumb 7.22802 -18.9069
lclavicle 1.42628e-014 -7.95139e-015
lhumerus -36.3637 12.5885 80.7865
lradius 26.8395
lwrist -0.148092
lhand -16.1867 22.9834
lfingers 7.12502
lthumb 10.0201 52.7249
rfemur 14.3628 -0.581567 27.6659
rtibia 27.4303
rfoot -5.36596 5.57693
rtoes 1.24731
lfemur -26.893 3.67695 -16.7767
ltibia 29.6107
lfoot -6.37275 -15.7029
ltoes -20.9305
